<svg width="600" height="600" viewBox="0 0 600 600" fill="none" xmlns="http://www.w3.org/2000/svg">
<path d="M79.25 186L300 313.75L519.25 186.75M300 540.25V313.5" stroke="#DC6A90" stroke-width="11.5" stroke-linecap="round" stroke-linejoin="round"/>
<path d="M248.25 62L114.75 136C84.5 152.75 59.75 194.75 59.75 229.25V370.5C59.75 405 84.5 447 114.75 463.75L248.25 538C276.75 553.75 323.5 553.75 352 538L485.5 463.75C515.75 447 540.5 405 540.5 370.5V229.25C540.5 194.75 515.75 152.75 485.5 136L352 61.75C323.25 46 276.75 46 248.25 62Z" stroke="url(#paint0_linear_202_4)" stroke-width="19.5" stroke-linecap="round" stroke-linejoin="round"/>
<defs>
<linearGradient id="paint0_linear_202_4" x1="300.125" y1="49.9686" x2="300.125" y2="549.812" gradientUnits="userSpaceOnUse">
<stop stop-color="#882244"/>
<stop offset="1" stop-color="#DB1A5A"/>
</linearGradient>
</defs>
</svg>
